<svg class="w-8 h-8 fill-accentLight dark:fill-accentDark" viewBox="0 0 120 120" fill="fill-accentLight dark:fill-accentDark" xmlns="http://www.w3.org/2000/svg">
  <path fill-rule="evenodd" clip-rule="evenodd" d="M82.6119 3.56678e-06V18.8304L1.01338 18.8304L1.01338 0L82.6119 3.56678e-06ZM38.1051 52.6122C29.6816 52.6122 23.3002 55.6753 19.8542 60.3975V28.8733H0.709961V118.213H19.8542V83.3706C19.8542 74.309 24.7041 70.2249 31.7237 70.2249C37.8498 70.2249 42.8273 73.9261 42.8273 81.8391V118.213H61.9716V111.799C67.3496 116.938 74.3737 120 82.0103 120C90.5614 120 96.8151 117.065 101.027 112.215V118.213H120.171V54.399H101.027V60.3975C96.8151 55.5476 90.5614 52.6122 82.0103 52.6122C72.6811 52.6122 64.2658 57.182 58.6493 64.5255C54.4424 56.6968 46.6992 52.6122 38.1051 52.6122ZM85.8391 101.877C77.0327 101.877 70.6513 95.8782 70.6513 86.3061C70.6513 76.7339 77.0327 70.7354 85.8391 70.7354C94.6455 70.7354 101.027 76.7339 101.027 86.3061C101.027 95.8782 94.6455 101.877 85.8391 101.877ZM101.442 18.8304L120.273 18.8304V3.56678e-06H101.442V18.8304Z" fill="fill-accentLight dark:fill-accentDark"/>
</svg>
  